<?xml version="1.0" encoding="UTF-8"?>
<svg id="Calque_1" xmlns="http://www.w3.org/2000/svg" version="1.1" viewBox="0 0 1242 2688">
  <!-- Generator: Adobe Illustrator 29.8.6, SVG Export Plug-In . SVG Version: 2.1.1 Build 1)  -->
  <defs>
    <style>
      .st0 {
        fill: #936037;
        opacity: .07;
      }

      .st1 {
        fill: #fff;
      }
    </style>
  </defs>
  <rect class="st0" x=".33" y="-.24" width="1242" height="2688"/>
  <path class="st1" d="M266.03,710.73c13.84-61.59,88.16-85.97,133.86-41.47,24.11,23.47,22.15,47.44,30.03,77.32,27.48,104.15,159.94,135.09,229.13,51.34,49.25-59.61,24.56-125.4,14.12-194.22-18.92-46.2-87.07-30.59-83.26,19.69,2.05,27.02,11.18,56.15,13.61,83.3,3.43,38.31-35.32,66-69.46,46.81-25.2-14.16-22.65-40.32-27.94-64.76-23.38-107.87-153.35-165.91-247.46-104.69l-17.4,12.52-31.04-191.06c-.37-2.28-6-10-7.91-12.21-27.03-31.2-76.61-10.76-75.85,29.8l71.75,442.64c7.67,31.49,45.64,43.57,70.19,22.64,8.91-7.6,15.58-22.12,14.78-33.89-2.77-40.67-25.56-106.31-17.14-143.75Z"/>
  <path class="st1" d="M893.68,273.77c31.13-24.41,76.87-6.8,81.42,32.92,2.4,20.95-8.05,31.81-16.07,49.44-27.93,61.45,24.11,128.97,90.89,115.73,47.53-9.42,61.62-51.14,83.83-88.69,9.12-29.93-30.14-49.36-48.23-23.44-9.71,13.93-16.83,31.69-26.41,45.83-13.52,19.96-43.3,18.04-52.27-4.8-6.62-16.87,4.99-28.55,12.1-42.51,31.4-61.63-8.69-141.32-78.64-148.9l-13.41-.82,60.65-105.06c.72-1.25,1.05-7.23,1-9.06-.76-25.86-32.92-35.59-48.64-15.6l-140.6,243.32c-8.76,18.33,4.89,39.24,25.1,38.81,7.34-.16,16.33-4.57,20.61-10.6,14.77-20.84,29.73-61.74,48.65-76.58Z"/>
  <path class="st1" d="M308.03,1203.18c-21.32,16.72-52.64,4.66-55.76-22.54-1.64-14.35,5.51-21.78,11-33.86,19.13-42.08-16.51-88.32-62.24-79.26-32.55,6.45-42.2,35.02-57.41,60.74-6.25,20.5,20.64,33.8,33.03,16.05,6.65-9.54,11.52-21.7,18.08-31.39,9.26-13.67,29.66-12.36,35.8,3.29,4.53,11.55-3.41,19.55-8.29,29.11-21.5,42.2,5.95,96.78,53.85,101.97l9.18.56-41.54,71.94c-.49.86-.72,4.95-.68,6.2.52,17.71,22.55,24.37,33.31,10.68l96.28-166.63c6-12.55-3.35-26.87-17.19-26.58-5.03.11-11.18,3.13-14.11,7.26-10.12,14.27-20.36,42.28-33.31,52.44Z"/>
  <path class="st1" d="M948.08,1360.17c53.48-33.54,123.12,2.06,123.7,65.85.31,33.65-18.1,49.13-33.76,75.77-54.6,92.85,16.7,208.69,124.89,198.85,77-7,106.34-70.86,147.86-126.73,19.48-45.97-39.59-83.36-72.61-45.25-17.74,20.48-32,47.48-49.57,68.32-24.79,29.41-71.73,21.39-82.15-16.36-7.69-27.87,12.69-44.48,26.31-65.44,60.13-92.55,9.83-225.71-99.9-249.43l-21.14-3.54,113.81-156.57c1.36-1.86,2.88-11.3,3.1-14.21,3.11-41.16-46.3-61.97-74.57-32.88l-263.78,362.62c-16.96,27.62,1.2,63.09,33.35,65.78,11.67.98,26.68-4.51,34.47-13.37,26.92-30.6,57.49-93.01,90-113.39Z"/>
  <path class="st1" d="M237.6,2220.27c35.27-52.36,113.36-48.09,139.78,9.97,13.94,30.63,3.41,52.25-.1,82.95-12.21,107.02,99.97,183.95,194.85,131.04,67.53-37.66,68.42-107.92,83.69-175.84-.85-49.92-70.02-60.12-84.73-11.88-7.9,25.92-9.97,56.38-17.57,82.56-10.71,36.94-56.88,48.67-81.72,18.39-18.34-22.35-6.46-45.8-2.52-70.49,17.39-108.99-82.64-210.27-192.55-187.41l-20.76,5.34,40.46-189.29c.48-2.25-1.96-11.5-2.94-14.24-13.86-38.88-67.47-37.85-81.5.22l-93.89,438.48c-4.29,32.12,26.7,57.17,57.18,46.58,11.06-3.84,22.55-14.96,26.08-26.21,12.19-38.9,14.79-108.34,36.23-140.16Z"/>
  <path class="st1" d="M704.81,1940.92c2.81-23.24,29.32-35.01,47.84-20.3,9.77,7.76,9.94,16.68,13.97,27.41,14.03,37.4,64.05,43.88,86.46,10.4,15.95-23.83,4.39-47.19-2.03-72.19-8.71-16.34-33.27-8.04-29.99,10.37,1.76,9.89,6.22,20.3,8.13,30.23,2.7,14.01-10.57,25.67-23.88,19.86-9.83-4.29-9.86-14.03-12.73-22.85-12.65-38.93-62.77-55.5-95.22-29.4l-5.95,5.27-18.58-69.34c-.22-.83-2.59-3.47-3.37-4.21-11.14-10.5-28.67-1.11-26.88,13.83l42.99,160.65c4,11.33,18.47,14.38,26.74,5.74,3.01-3.14,4.92-8.74,4.19-13.06-2.54-14.9-13.4-38.28-11.69-52.4Z"/>
  <path class="st1" d="M638.1,1520.88c-5.13,42.38-53.46,63.83-87.23,37-17.81-14.15-18.13-30.41-25.46-49.98-25.57-68.19-116.79-80-157.64-18.95-29.08,43.45-8,86.03,3.71,131.62,15.87,29.8,60.65,14.66,54.67-18.91-3.21-18.04-11.34-37.02-14.82-55.11-4.91-25.54,19.27-46.8,43.55-36.22,17.92,7.82,17.98,25.59,23.2,41.67,23.06,70.98,114.45,101.18,173.6,53.6l10.86-9.6,33.88,126.43c.4,1.51,4.72,6.32,6.15,7.67,20.31,19.15,52.27,2.03,49-25.21l-78.37-292.9c-7.3-20.66-33.67-26.21-48.76-10.46-5.48,5.72-8.98,15.94-7.64,23.81,4.63,27.17,24.42,69.78,21.31,95.54Z"/>
  <path class="st1" d="M489.83,226.37c-5.13,42.38-53.46,63.83-87.23,37-17.81-14.15-18.13-30.41-25.46-49.98-25.57-68.19-116.79-80-157.64-18.95-29.08,43.45-8,86.03,3.71,131.62,15.87,29.8,60.65,14.66,54.67-18.91-3.21-18.04-11.34-37.02-14.82-55.11-4.91-25.54,19.27-46.8,43.55-36.22,17.92,7.82,17.98,25.59,23.2,41.67,23.06,70.98,114.45,101.18,173.6,53.6l10.86-9.6,33.88,126.43c.4,1.51,4.72,6.32,6.15,7.67,20.31,19.15,52.27,2.03,49-25.21l-78.37-292.9c-7.3-20.66-33.67-26.21-48.76-10.46-5.48,5.72-8.98,15.94-7.64,23.81,4.63,27.17,24.42,69.78,21.31,95.54Z"/>
  <path class="st1" d="M893.24,634.82c23.32,13.8,23.44,47.36-.77,60.14-12.77,6.74-22.3,2.77-35.54,2.03-46.16-2.55-76.31,47.43-51.27,86.76,17.82,27.99,47.95,26.62,77.43,31.46,21.37-1.62,24-31.5,2.97-36.6-11.3-2.74-24.41-2.86-35.81-5.46-16.09-3.67-22.27-23.15-9.92-34.55,9.12-8.42,19.46-3.91,30.14-2.84,47.13,4.72,88.02-40.67,75.48-87.18l-2.81-8.76,82.11,12.6c.98.15,4.88-1.13,6.03-1.61,16.31-6.91,14.53-29.85-2.13-34.91l-190.21-29.25c-13.87-1.03-23.83,12.87-18.53,25.66,1.92,4.64,6.97,9.29,11.88,10.52,16.97,4.25,46.79,3.63,60.96,12.01Z"/>
  <path class="st1" d="M568.84,959.01c-1.69,14.88-18.59,22.53-30.5,13.21-6.29-4.92-6.44-10.62-9.06-17.46-9.15-23.86-41.18-27.76-55.35-6.23-10.09,15.32-2.58,30.2,1.65,46.16,5.65,10.41,21.32,4.98,19.13-6.78-1.17-6.32-4.08-12.96-5.34-19.29-1.79-8.95,6.64-16.47,15.18-12.82,6.31,2.69,6.37,8.93,8.25,14.56,8.28,24.84,40.41,35.19,61.04,18.35l3.78-3.4,12.22,44.26c.15.53,1.67,2.21,2.18,2.68,7.17,6.66,18.34.58,17.12-8.97l-28.26-102.54c-2.61-7.23-11.88-9.11-17.13-3.54-1.91,2.02-3.11,5.62-2.62,8.37,1.7,9.52,8.75,24.42,7.73,33.46Z"/>
  <path class="st1" d="M735.95,1097.36c5.91-26.44,37.79-36.94,57.43-17.86,10.36,10.06,9.53,20.35,12.92,33.17,11.84,44.68,68.7,57.9,98.36,21.92,21.11-25.6,10.48-53.83,5.97-83.36-8.14-19.82-37.38-13.09-35.72,8.49.89,11.59,4.82,24.09,5.88,35.74,1.49,16.44-15.13,28.34-29.79,20.12-10.82-6.07-9.74-17.3-12.02-27.78-10.08-46.28-65.89-71.13-106.25-44.81l-7.46,5.38-13.41-81.98c-.16-.98-2.58-4.29-3.4-5.23-11.62-13.38-32.88-4.58-32.54,12.83l31,189.93c3.31,13.51,19.61,18.68,30.14,9.68,3.82-3.27,6.68-9.5,6.33-14.55-1.21-17.45-11.02-45.61-7.43-61.68Z"/>
  <path class="st1" d="M1163.03,2008.37c-31.68,24.85-78.23,6.92-82.86-33.5-2.44-21.32,8.19-32.37,16.35-50.31,28.43-62.54-24.53-131.25-92.5-117.78-48.37,9.59-62.72,52.05-85.32,90.26-9.29,30.46,30.68,50.23,49.08,23.85,9.89-14.17,17.13-32.25,26.87-46.64,13.76-20.31,44.07-18.36,53.2,4.89,6.74,17.16-5.08,29.06-12.32,43.27-31.96,62.72,8.85,143.82,80.03,151.54l13.65.84-61.73,106.92c-.74,1.27-1.07,7.36-1.02,9.22.77,26.32,33.51,36.22,49.5,15.87l143.09-247.63c8.91-18.65-4.97-39.93-25.55-39.5-7.47.16-16.62,4.65-20.97,10.78-15.03,21.21-30.25,62.83-49.51,77.93Z"/>
  <path class="st1" d="M137.52,1616.66c15.9-21.94,49.33-18.96,59.81,6.33,5.53,13.34.69,22.46-1.26,35.58-6.81,45.72,40.17,80.37,81.64,59.07,29.52-15.16,30.94-45.28,38.49-74.19.37-21.43-29.15-26.82-36.17-6.35-3.77,11-5.11,24.04-8.75,35.15-5.14,15.69-25.11,20.04-35.32,6.68-7.54-9.86-2.1-19.74-.04-30.27,9.06-46.49-32.35-91.4-79.83-83.22l-8.98,1.99,20.14-80.59c.24-.96-.67-4.96-1.05-6.15-5.37-16.88-28.38-17.23-34.96-1.11l-46.73,186.69c-2.31,13.72,10.61,24.91,23.84,20.82,4.8-1.49,9.89-6.08,11.57-10.86,5.8-16.5,7.94-46.25,17.6-59.58Z"/>
  <path class="st1" d="M1095.86,2478.67c-14.54,22.86-48.09,21.91-60.08-2.71-6.32-12.98-2.05-22.38-.89-35.59,4.04-46.05-44.95-77.79-85.07-54.03-28.55,16.91-28.14,47.07-33.93,76.38.93,21.41,30.71,25.01,36.48,4.15,3.1-11.21,3.65-24.3,6.61-35.62,4.18-15.97,23.85-21.52,34.85-8.81,8.12,9.38,3.29,19.58,1.87,30.21-6.24,46.95,37.81,89.28,84.71,78.24l8.85-2.53-15.23,81.66c-.18.97.97,4.91,1.42,6.08,6.38,16.53,29.37,15.48,34.96-1.01l35.35-189.17c1.48-13.83-12.1-24.23-25.05-19.34-4.7,1.77-9.51,6.67-10.89,11.54-4.79,16.82-5.13,46.65-13.97,60.54Z"/>
  <path class="st1" d="M888.76,2268.18c-27.09-.11-44.18-29-29.75-52.27,7.61-12.27,17.84-13.67,29.63-19.73,41.11-21.14,41.84-79.51.34-100.77-29.53-15.13-54.83,1.29-82.7,12.03-17.62,12.2-4.77,39.32,15.95,33.07,11.13-3.35,22.5-9.87,33.65-13.4,15.74-4.98,30.92,8.7,26.04,24.79-3.61,11.87-14.81,13.22-24.56,17.7-43.05,19.76-55.36,79.6-21.01,113.39l6.85,6.14-77.21,30.66c-.92.37-3.64,3.44-4.38,4.44-10.58,14.21,2.57,33.1,19.5,29.04l178.88-70.97c12.49-6.12,14.04-23.15,3-31.51-4.01-3.03-10.71-4.49-15.57-3.06-16.79,4.92-42.19,20.54-58.66,20.47Z"/>
  <path class="st1" d="M468.85,1940.24c-9.69-11.81-3.28-29.62,12.02-31.72,8.07-1.1,12.35,2.84,19.23,5.78,23.97,10.26,49.6-10.4,43.92-36.08-4.04-18.27-20.27-23.36-34.96-31.62-11.64-3.27-18.8,12.06-8.64,18.82,5.46,3.63,12.38,6.23,17.92,9.81,7.82,5.05,7.33,16.57-1.41,20.23-6.46,2.7-11.07-1.68-16.52-4.31-24.06-11.6-54.5,4.56-56.83,31.63l-.2,5.18-41.08-22.53c-.49-.27-2.8-.34-3.51-.31-9.98.51-13.46,13.02-5.61,18.91l95.15,52.22c7.15,3.23,15.11-2.22,14.77-10.02-.12-2.83-1.9-6.27-4.27-7.87-8.17-5.53-24.09-10.95-29.98-18.13Z"/>
  <path class="st1" d="M520.3,1298.83c-2.38-17.79,15.03-31.61,31.6-24.24,8.74,3.88,10.58,10.47,15.62,17.66,17.59,25.06,55.95,20.26,66.15-8.89,7.26-20.74-5.81-35.85-15.37-53.18-9.6-10.45-26.23.42-20.26,13.45,3.21,7,8.51,13.87,11.84,20.87,4.69,9.88-2.92,21.08-13.91,19.32-8.12-1.29-10.01-8.52-13.83-14.51-16.86-26.46-57.23-29.13-76.29-3.53l-3.41,5.05-27.1-47.88c-.32-.57-2.59-2.08-3.31-2.48-10.28-5.65-21.49,4.68-17.29,15.42l62.74,110.95c5.15,7.64,16.46,7.12,20.95-.88,1.63-2.9,1.97-7.43.6-10.49-4.75-10.57-17.29-25.83-18.73-36.64Z"/>
  <path class="st1" d="M1016.53,919.52c9.23-13.01,28.93-11.46,35.25,3.38,3.33,7.82.54,13.22-.53,20.96-3.74,26.96,24.13,47.09,48.42,34.3,17.29-9.1,17.95-26.85,22.22-43.91.09-12.62-17.32-15.62-21.33-3.52-2.16,6.5-2.87,14.18-4.94,20.75-2.93,9.27-14.67,11.95-20.76,4.15-4.5-5.76-1.35-11.61-.2-17.82,5.06-27.43-19.59-53.63-47.5-48.53l-5.28,1.22,11.38-47.58c.14-.57-.42-2.92-.65-3.62-3.26-9.91-16.81-9.98-20.59-.44l-26.41,110.2c-1.28,8.09,6.4,14.61,14.16,12.12,2.82-.9,5.79-3.64,6.75-6.46,3.32-9.75,4.4-27.28,10.01-35.19Z"/>
  <path class="st1" d="M617.09,132.94c2.73-18.51,24.16-27.36,38.66-15.21,7.64,6.41,7.59,13.54,10.59,22.2,10.42,30.18,50.26,36.41,68.87,10.12,13.24-18.71,4.49-37.61-.11-57.73-6.61-13.24-26.41-7.12-24.18,7.66,1.2,7.94,4.54,16.35,5.86,24.33,1.86,11.25-8.98,20.29-19.5,15.37-7.76-3.63-7.59-11.42-9.69-18.53-9.29-31.37-49-45.66-75.47-25.49l-4.87,4.08-13.39-55.8c-.16-.66-1.99-2.83-2.61-3.43-8.68-8.63-22.88-1.49-21.77,10.48l30.98,129.27c2.96,9.14,14.45,11.87,21.25,5.14,2.47-2.44,4.12-6.88,3.62-10.35-1.72-11.96-9.9-30.87-8.24-42.12Z"/>
  <path class="st1" d="M97.38,187.14c-21.32,16.72-52.64,4.66-55.76-22.54-1.64-14.35,5.51-21.78,11-33.86,19.13-42.08-16.51-88.32-62.24-79.26-32.55,6.45-42.2,35.02-57.41,60.74-6.25,20.5,20.64,33.8,33.03,16.05,6.65-9.54,11.52-21.7,18.08-31.39,9.26-13.67,29.66-12.36,35.8,3.29,4.53,11.55-3.41,19.55-8.29,29.11-21.5,42.2,5.95,96.78,53.85,101.97l9.18.56-41.54,71.94c-.49.86-.72,4.95-.68,6.2.52,17.71,22.55,24.37,33.31,10.68l96.28-166.63c6-12.55-3.35-26.87-17.19-26.58-5.03.11-11.18,3.13-14.11,7.26-10.12,14.27-20.36,42.28-33.31,52.44Z"/>
  <path class="st1" d="M39.92,887.5c-9.69-11.81-3.28-29.62,12.02-31.72,8.07-1.1,12.35,2.84,19.23,5.78,23.97,10.26,49.6-10.4,43.92-36.08-4.04-18.27-20.27-23.36-34.96-31.62-11.64-3.27-18.8,12.06-8.64,18.82,5.46,3.63,12.38,6.23,17.92,9.81,7.82,5.05,7.33,16.57-1.41,20.23-6.46,2.7-11.07-1.68-16.52-4.31-24.06-11.6-54.5,4.56-56.83,31.63l-.2,5.18-41.08-22.53c-.49-.27-2.8-.34-3.51-.31-9.98.51-13.46,13.02-5.61,18.91l95.15,52.22c7.15,3.23,15.11-2.22,14.77-10.02-.12-2.83-1.9-6.27-4.27-7.87-8.17-5.53-24.09-10.95-29.98-18.13Z"/>
  <path class="st1" d="M291.68,2593.01c-2.38-17.79,15.03-31.61,31.6-24.24,8.74,3.88,10.58,10.47,15.62,17.66,17.59,25.06,55.95,20.26,66.15-8.89,7.26-20.74-5.81-35.85-15.37-53.18-9.6-10.45-26.23.42-20.26,13.45,3.21,7,8.51,13.87,11.84,20.87,4.69,9.88-2.92,21.08-13.91,19.32-8.12-1.29-10.01-8.52-13.83-14.51-16.86-26.46-57.23-29.13-76.29-3.53l-3.41,5.05-27.1-47.88c-.32-.57-2.59-2.08-3.31-2.48-10.28-5.65-21.49,4.68-17.29,15.42l62.74,110.95c5.15,7.64,16.46,7.12,20.95-.88,1.63-2.9,1.97-7.43.6-10.49-4.75-10.57-17.29-25.83-18.73-36.64Z"/>
  <path class="st1" d="M724.43,2637.4c31.13-24.41,76.87-6.8,81.42,32.92,2.4,20.95-8.05,31.81-16.07,49.44-27.93,61.45,24.11,128.97,90.89,115.73,47.53-9.42,61.62-51.14,83.83-88.69,9.12-29.93-30.14-49.36-48.23-23.44-9.71,13.93-16.83,31.69-26.41,45.83-13.52,19.96-43.3,18.04-52.27-4.8-6.62-16.87,4.99-28.55,12.1-42.51,31.4-61.63-8.69-141.32-78.64-148.9l-13.41-.82,60.65-105.06c.72-1.25,1.05-7.23,1-9.06-.76-25.86-32.92-35.59-48.64-15.6l-140.6,243.32c-8.76,18.33,4.89,39.24,25.1,38.81,7.34-.16,16.33-4.57,20.61-10.6,14.77-20.84,29.73-61.74,48.65-76.58Z"/>
  <path class="st1" d="M37.06,2584.37c-18.78-19.53-9.93-51.91,16.82-57.74,14.11-3.08,22.23,3.29,34.79,7.54,43.79,14.8,86.21-25.31,72.59-69.9-9.69-31.74-39.09-38.46-66.21-51-21.02-4.15-31.55,23.94-12.65,34.47,10.16,5.66,22.75,9.28,33.05,14.83,14.53,7.83,15.28,28.26.33,35.95-11.03,5.67-19.8-1.43-29.8-5.31-44.15-17.15-95.69,15.66-96.03,63.84l.36,9.19-75.76-34.09c-.9-.41-5-.22-6.24-.06-17.57,2.3-21.98,24.88-7.27,34.21l175.47,79.02c13.09,4.7,26.4-6.03,24.71-19.78-.61-4.99-4.24-10.81-8.64-13.31-15.22-8.63-44.11-16-55.53-27.87Z"/>
  <path class="st1" d="M67.7,1997.7c-1.69,14.88-18.59,22.53-30.5,13.21-6.29-4.92-6.44-10.62-9.06-17.46-9.15-23.86-41.18-27.76-55.35-6.23-10.09,15.32-2.58,30.2,1.65,46.16,5.65,10.41,21.32,4.98,19.13-6.78-1.17-6.32-4.08-12.96-5.34-19.29-1.79-8.95,6.64-16.47,15.18-12.82,6.31,2.69,6.37,8.93,8.25,14.56,8.28,24.84,40.41,35.19,61.04,18.35l3.78-3.4,12.22,44.26c.15.53,1.67,2.21,2.18,2.68,7.17,6.66,18.34.58,17.12-8.97l-28.26-102.54c-2.61-7.23-11.88-9.11-17.13-3.54-1.91,2.02-3.11,5.62-2.62,8.37,1.7,9.52,8.75,24.42,7.73,33.46Z"/>
  <path class="st1" d="M858.24,1660.34c5.66-10.37,20.29-10.93,26.23-.57,3.13,5.47,1.54,9.68,1.42,15.46-.42,20.16,21.83,32.55,38.59,21.04,11.93-8.19,10.88-21.3,12.54-34.23-1.03-9.29-14.09-9.99-16-.74-1.02,4.97-.88,10.68-1.84,15.69-1.36,7.07-9.76,10.06-14.91,4.85-3.81-3.85-2-8.42-1.69-13.09,1.35-20.62-19.05-37.76-39.14-31.59l-3.78,1.36,4.25-35.98c.05-.43-.56-2.11-.79-2.6-3.26-7.01-13.23-5.88-15.19,1.46l-9.88,83.36c-.24,6.06,5.97,10.19,11.47,7.69,2-.91,3.94-3.18,4.41-5.34,1.6-7.46.88-20.45,4.32-26.75Z"/>
  <path class="st1" d="M720.45,480.91c5.41-7.62,16.95-6.71,20.65,1.98,1.95,4.58.32,7.75-.31,12.28-2.19,15.8,14.14,27.58,28.37,20.09,10.13-5.33,10.52-15.73,13.02-25.73.05-7.39-10.15-9.15-12.5-2.06-1.26,3.81-1.68,8.31-2.9,12.16-1.72,5.43-8.59,7-12.16,2.43-2.63-3.37-.79-6.8-.12-10.44,2.97-16.07-11.48-31.42-27.83-28.43l-3.09.72,6.67-27.87c.08-.33-.25-1.71-.38-2.12-1.91-5.8-9.85-5.84-12.06-.26l-15.47,64.56c-.75,4.74,3.75,8.56,8.3,7.1,1.65-.53,3.39-2.13,3.95-3.79,1.94-5.71,2.58-15.98,5.87-20.62Z"/>
  <path class="st1" d="M367.69,499.45c-2.7-8.95,5.1-17.5,14.23-15.1,4.82,1.27,6.31,4.5,9.5,7.78,11.13,11.42,30.46,5.76,33.27-10.08,2-11.27-5.97-17.95-12.33-26.06-5.81-4.58-13.45,2.4-9.3,8.6,2.23,3.33,5.53,6.42,7.82,9.74,3.23,4.69.26,11.08-5.54,11.09-4.28.01-5.86-3.55-8.32-6.31-10.87-12.2-31.85-10.21-39.52,4.53l-1.33,2.88-17.92-22.36c-.21-.27-1.5-.85-1.91-1-5.76-2.05-10.66,4.19-7.61,9.37l41.5,51.82c3.28,3.5,9.06,2.29,10.7-2.2.6-1.63.4-3.99-.56-5.45-3.32-5.04-11.04-11.84-12.68-17.28Z"/>
  <path class="st1" d="M332.36,1003.86c4.34-8.28,15.9-8.92,20.73-.81,2.55,4.28,1.35,7.63,1.34,12.21-.05,15.95,17.71,25.44,30.81,16.11,9.32-6.64,8.31-17,9.45-27.24-.94-7.33-11.28-7.71-12.66-.37-.74,3.94-.55,8.46-1.24,12.43-.98,5.61-7.58,8.09-11.73,4.04-3.06-2.99-1.7-6.63-1.52-10.33.78-16.32-15.58-29.6-31.39-24.44l-2.97,1.12,2.87-28.51c.03-.34-.48-1.66-.66-2.05-2.67-5.5-10.54-4.47-11.99,1.36l-6.68,66.05c-.11,4.8,4.86,7.98,9.17,5.92,1.57-.75,3.08-2.57,3.41-4.28,1.16-5.92.41-16.18,3.05-21.22Z"/>
  <path class="st1" d="M604.3,2073.98c9.33-.62,15.91,8.9,11.51,17.26-2.32,4.41-5.8,5.14-9.71,7.51-13.63,8.28-12.45,28.38,2.34,34.69,10.53,4.49,18.83-1.78,28.17-6.16,5.76-4.63.68-13.65-6.3-10.99-3.75,1.43-7.5,3.95-11.25,5.43-5.29,2.1-10.85-2.24-9.57-7.89.95-4.17,4.77-4.91,8.02-6.69,14.33-7.85,17.11-28.74,4.46-39.53l-2.51-1.94,25.82-12.44c.31-.15,1.17-1.27,1.4-1.64,3.29-5.15-1.69-11.33-7.42-9.52l-59.82,28.79c-4.15,2.41-4.27,8.31-.26,10.92,1.45.95,3.8,1.28,5.43.67,5.66-2.1,14.02-8.1,19.69-8.48Z"/>
  <path class="st1" d="M1204.16,1788.93c-5.87-7.27-1.87-18.13,7.5-19.35,4.94-.64,7.54,1.79,11.73,3.63,14.61,6.39,30.38-6.14,27.03-21.87-2.39-11.2-12.29-14.38-21.24-19.5-7.1-2.05-11.56,7.29-5.37,11.47,3.32,2.25,7.54,3.87,10.92,6.08,4.76,3.12,4.41,10.17-.96,12.36-3.96,1.62-6.76-1.08-10.08-2.71-14.67-7.21-33.35,2.54-34.9,19.09l-.15,3.17-25.02-13.97c-.3-.17-1.71-.22-2.14-.2-6.11.27-8.29,7.9-3.52,11.54l57.96,32.38c4.36,2.01,9.25-1.29,9.08-6.06-.06-1.73-1.13-3.84-2.57-4.83-4.97-3.42-14.69-6.81-18.26-11.23Z"/>
  <path class="st1" d="M1187.71,753.29c-3.02-13.35,9.26-25.04,22.34-20.58,6.9,2.35,8.75,7.23,13.08,12.34,15.07,17.83,43.89,11.56,49.64-11.28,4.09-16.25-6.86-26.84-15.32-39.34-8.01-7.28-19.89,2.12-14.47,11.61,2.92,5.1,7.42,9.95,10.42,15.04,4.24,7.18-.77,16.21-9.24,15.63-6.25-.43-8.19-5.79-11.5-10.08-14.62-18.94-45.46-18.2-58.19,2.54l-2.24,4.07-23.86-34.51c-.28-.41-2.11-1.4-2.68-1.65-8.2-3.59-16,5.02-12.08,12.9l55.25,79.98c4.43,5.45,12.99,4.28,15.85-2.1,1.04-2.32.99-5.78-.26-8.01-4.33-7.7-14.9-18.43-16.74-26.55Z"/>
  <path class="st1" d="M1136.79,173.96c1.44-19.7,23.31-30.67,39.51-19.01,8.54,6.15,9.04,13.66,12.86,22.54,13.31,30.96,55.73,34.42,73.27,5.31,12.49-20.72,1.81-39.94-4.6-60.75-7.99-13.42-28.35-5.45-24.85,9.94,1.88,8.27,6.05,16.86,8.06,25.15,2.83,11.7-7.88,22.05-19.33,17.69-8.45-3.22-8.87-11.43-11.64-18.75-12.21-32.3-55.11-44.26-81.41-20.97l-4.81,4.68-18.43-57.69c-.22-.69-2.32-2.82-3.01-3.41-9.81-8.4-24.2.21-22.1,12.72l42.64,133.66c3.83,9.39,16.13,11.38,22.77,3.77,2.41-2.76,3.8-7.57,3.01-11.17-2.73-12.46-12.82-31.72-11.94-43.69Z"/>
  <path class="st1" d="M1070.98,557.32c.62-6.64,8.08-10.2,13.47-6.16,2.84,2.13,2.96,4.67,4.19,7.7,4.29,10.55,18.59,12,24.71,2.28,4.36-6.91.88-13.48-1.15-20.55-2.61-4.59-9.54-2.03-8.46,3.19.58,2.8,1.93,5.74,2.55,8.55.88,3.97-2.81,7.4-6.65,5.85-2.83-1.14-2.92-3.92-3.8-6.41-3.91-10.99-18.32-15.32-27.36-7.63l-1.66,1.55-5.84-19.61c-.07-.23-.76-.97-.99-1.17-3.26-2.9-8.18-.09-7.55,4.15l13.5,45.43c1.23,3.2,5.37,3.95,7.66,1.42.83-.92,1.33-2.53,1.09-3.75-.84-4.23-4.12-10.8-3.74-14.84Z"/>
  <path class="st1" d="M104.76,1373.94c.62-6.64,8.08-10.2,13.47-6.16,2.84,2.13,2.96,4.67,4.19,7.7,4.29,10.55,18.59,12,24.71,2.28,4.36-6.91.88-13.48-1.15-20.55-2.61-4.59-9.54-2.03-8.46,3.19.58,2.8,1.93,5.74,2.55,8.55.88,3.97-2.81,7.4-6.65,5.85-2.83-1.14-2.92-3.92-3.8-6.41-3.91-10.99-18.32-15.32-27.36-7.63l-1.66,1.55-5.84-19.61c-.07-.23-.76-.97-.99-1.17-3.26-2.9-8.18-.09-7.55,4.15l13.5,45.43c1.23,3.2,5.37,3.95,7.66,1.42.83-.92,1.33-2.53,1.09-3.75-.84-4.23-4.12-10.8-3.74-14.84Z"/>
  <path class="st1" d="M529.33,1143.75c2.05-6.35,10.11-8.19,14.49-3.07,2.31,2.7,1.87,5.21,2.41,8.43,1.88,11.23,15.52,15.77,23.62,7.62,5.76-5.8,3.8-12.96,3.37-20.31-1.54-5.05-8.87-4.06-8.95,1.27-.05,2.86.63,6.02.63,8.9,0,4.07-4.36,6.6-7.76,4.25-2.52-1.73-1.99-4.46-2.31-7.09-1.42-11.58-14.53-18.95-25.03-13.42l-1.95,1.15-1.42-20.41c-.02-.24-.53-1.11-.71-1.36-2.54-3.55-7.96-1.87-8.27,2.4l3.26,47.28c.5,3.39,4.38,5.03,7.17,3.06,1.01-.71,1.85-2.18,1.88-3.42.1-4.31-1.66-11.44-.41-15.3Z"/>
  <path class="st1" d="M536.65,1732.93c4.72-4.72,12.73-2.7,14.3,3.86.83,3.46-.7,5.49-1.68,8.6-3.43,10.86,6.66,21.1,17.57,17.53,7.77-2.54,9.28-9.82,12.23-16.55.92-5.2-6.05-7.65-8.55-2.94-1.34,2.53-2.17,5.65-3.49,8.21-1.86,3.62-6.88,3.9-8.85.26-1.45-2.69.25-4.88,1.16-7.36,4-10.96-4.33-23.48-16.19-23.33l-2.26.14,8.02-18.82c.1-.22.03-1.23-.02-1.54-.65-4.31-6.24-5.29-8.46-1.62l-18.59,43.6c-1.09,3.25,1.62,6.47,4.99,5.99,1.23-.18,2.64-1.1,3.23-2.19,2.05-3.79,3.72-10.94,6.59-13.81Z"/>
</svg>