<?xml version="1.0" encoding="UTF-8"?>
<svg id="Calque_1" xmlns="http://www.w3.org/2000/svg" version="1.1" viewBox="0 0 1024 1024">
  <!-- Generator: Adobe Illustrator 30.3.0, SVG Export Plug-In . SVG Version: 2.1.3 Build 182)  -->
  <defs>
    <style>
      .st0 {
        fill: #fff;
      }

      .st1 {
        fill: #e30613;
      }
    </style>
  </defs>
  <path class="st1" d="M0,1023.5V0h1024v1024H0v-.5Z"/>
  <path class="st0" d="M347.3,622.3c0-26.4,11.1-50.9,32.2-66.7,30.7-22.9,72.5-20.1,99.9,6.5,18.1,17.6,25.7,41,24.4,66.6-1.8,37.1,10.6,72.6,36,99,55.5,57.6,149.9,49.7,195.6-15.9,15.2-21.8,23.9-47.3,23.7-74.6l-.6-82.8c-.1-21.7-21.7-36.6-41.7-35.8-20.2.9-39.1,16-39.3,37.4l-1.1,84.6c-1.8,25.3-22.5,43.2-46.3,42.6-23.8-.6-43.7-18.8-44.2-43.6l-.7-34.6c-1.9-36.6-17.4-70.1-42.1-96.9-50.5-54.7-131.6-69.1-195.9-29.6l-.4-182.8c0-23.4-22-39.2-43.3-38-21.7,1.2-38.8,18.9-38.7,41.9l.2,428.9c0,23.4,22.4,38.9,43,37.9,22.9-1.2,39.3-19.5,39.3-42.6v-101.5Z"/>
</svg>