<?xml version="1.0" encoding="UTF-8"?>
<svg id="Calque_1" xmlns="http://www.w3.org/2000/svg" version="1.1" viewBox="0 0 1024 1024">
  <!-- Generator: Adobe Illustrator 30.3.0, SVG Export Plug-In . SVG Version: 2.1.3 Build 182)  -->
  <defs>
    <style>
      .st0 {
        fill: #fff;
      }

      .st1 {
        fill: #e30613;
      }
    </style>
  </defs>
  <path class="st1" d="M0,1023.5V0h1024v1024H0v-.5Z"/>
  <g>
    <path class="st0" d="M315.3,758.4c-10.6-6.1-21.7-5.7-32.7.2l-.2-26.3c0-3.7-5.8-7.1-9.3-6.9-3.3.1-8.6,3.3-8.6,7.5l.2,85c0,4.4,5.9,7.5,9.6,7.3,3-.2,8.5-3.7,8.5-7.1l.4-31.7c.1-7.8,6.9-12.9,13.1-13.8,6.3-.9,15.6,3,15.8,10.9l.9,35.9c0,4,7.4,6.4,10.2,5.7,2.5-.7,7.4-4.2,7.4-6.9l.2-31.7c0-12-6.5-22.7-15.7-28Z"/>
    <path class="st0" d="M645.2,754c-17.3,0-33,13.2-32.9,31.6l.2,33.3c0,3.3,6.5,6.3,9.4,6.2,3.1-.1,8.5-3.5,8.6-6.9l.3-31.8c0-8.1,7.8-13.8,14.6-13.7,7.4,0,14.4,5.5,14.7,14.4l1.1,32.9c0,2.9,7.1,5.7,9.9,5,2.5-.6,7.6-4.1,7.6-6.7v-31.5c0-19-15.4-32.7-33.4-32.6Z"/>
    <path class="st0" d="M400.3,754c-3-.7-9.8,2.4-9.8,6.2l-.2,30.7c0,9.6-6.2,15.9-15.4,15.8-8.3,0-14.1-6.8-14.2-15.7l-.2-30.5c0-3.2-6.1-6.3-8.8-6.2-2.9,0-8.7,2.8-8.7,6.8l.3,36.9c1.7,17.2,17.3,27.7,33.1,27.3,15.6-.4,31.6-11.6,31.8-28.7l.3-33.2c0-4.5-4-8.2-8-9.2Z"/>
    <path class="st0" d="M590.7,753.9c-6,1-8.7,5.1-8.7,10.5v54.1c.1,3.7,6.4,6.7,9.3,6.5,3.3-.2,8.8-3.1,8.9-7.3v-54.7c.2-4.9-5.7-9.8-9.4-9.2Z"/>
    <path class="st0" d="M589.5,726.5c-6.7,1-9.8,6.7-8.6,12.4,1,4.5,6.2,8.6,11.5,7.6,5-1,9.1-5.6,8.5-11.5-.4-4.3-5.7-9.4-11.4-8.6Z"/>
    <path class="st0" d="M758.5,785c0-14.2-13.3-26.1-24.5-29.3-15-4.3-29.5.2-38.2,11.7-10.4,14-10.2,32.2.7,44.7,10.5,12,28,16.8,43.4,7.1,2.6,7.7-1.1,16.4-8.5,19.9-7.7,3.6-17.5,2.2-22.3-5.4-3.1-4.9-8-6.4-13.2-3.9-3.5,1.7-6.3,7.7-3.2,12.6,11,17.6,34.1,22.1,51,10.9,8.7-5.8,14.9-15.9,14.8-26.5v-42ZM730.5,804.9c-8.6,3.4-18.6,0-22.5-8.5-3.7-8-.2-18.5,9.3-22.6,9.5-4.1,19.2,1.4,22.4,9.8,3.2,8.6-.9,18-9.2,21.3Z"/>
    <path class="st0" d="M474,758.4c-11.3-6.2-23-6-34.9,1.2l-.2-27.2c0-4-5.3-7.3-8.8-7.2-3.4,0-9.2,3.1-9.2,7.3l-.4,57.3c-.1,20.3,17.1,35.2,35.9,35.2,19.4,0,36.5-15.2,35.7-36.4-.5-13.8-8.1-24.8-18.1-30.2ZM463.1,805.1c-7.1,2.8-14.9,1-19.2-3.4-5.4-5.4-7.1-13-3.3-20.4,2.7-5.3,9.7-9.7,17.1-9.1,8.2.7,14.1,6.8,15.6,13.7,1.7,8-1.8,15.9-10.2,19.2Z"/>
    <path class="st0" d="M519.6,759.1l-.6-27.8c-.1-4.7-7.7-7-11.3-5.7-4,1.5-6.5,4.9-6.5,9.8l-.2,56.9c0,13.1,9.7,24.2,19.6,29,12.3,6,26.1,5.1,37.2-3.1,16.1-11.9,18.6-32.7,8.7-47.8-10.2-15.6-30.2-20.7-46.9-11.2ZM542.9,805.8c-7.4,2.9-17.3-.1-21.8-8.6-4.1-7.8-1.3-18.8,8.7-23.4,9.3-4.2,19.2.6,22.9,9.2,3.6,8.4,0,18.9-9.8,22.7Z"/>
    <path class="st0" d="M346.6,529.1c0-26.4,11.1-50.9,32.2-66.7,30.7-22.9,72.5-20.1,99.9,6.5,18.1,17.6,25.7,41,24.4,66.6-1.8,37.1,10.6,72.6,36,99,55.5,57.6,149.9,49.7,195.6-15.9,15.2-21.8,23.9-47.3,23.7-74.6l-.6-82.8c-.1-21.7-21.7-36.6-41.7-35.8-20.2.9-39.1,16-39.3,37.4l-1.1,84.6c-1.8,25.3-22.5,43.2-46.3,42.6-23.8-.6-43.7-18.8-44.2-43.6l-.7-34.6c-1.9-36.6-17.4-70.1-42.1-96.9-50.5-54.7-131.6-69.1-195.9-29.6l-.4-182.8c0-23.4-22-39.2-43.3-38-21.7,1.2-38.8,18.9-38.7,41.9l.2,428.9c0,23.4,22.4,38.9,43,37.9,22.9-1.2,39.3-19.5,39.3-42.6v-101.5Z"/>
  </g>
</svg>