<?xml version="1.0" encoding="UTF-8"?>
<svg id="Calque_1" xmlns="http://www.w3.org/2000/svg" version="1.1" viewBox="0 0 1024 1024">
  <!-- Generator: Adobe Illustrator 30.3.0, SVG Export Plug-In . SVG Version: 2.1.3 Build 182)  -->
  <defs>
    <style>
      .st0 {
        fill: #fff;
      }

      .st1 {
        fill: #e30613;
      }
    </style>
  </defs>
  <path class="st1" d="M0,1023.5V0h1024v1024H0v-.5Z"/>
  <path class="st0" d="M375.1,682.7l-.6-24.7c-.1-5.4-6.5-8.1-10.9-7.5s-9,4.1-9,9.5l-.3,21.8c0,2.3-3.8,4.8-5.9,4.9s-6.6-2-6.6-5l-.2-58.4c0-2.9,3.7-5,5.9-5.1s6.3,2.2,6.4,4.8v18.1c7.7-4.1,15.3-4.3,22.6-.1s10.9,11,10.8,19.2l-.2,21.8c0,1.9-3.3,4.3-5.1,4.8s-7-1.1-7-3.9Z"/>
  <path class="st0" d="M613.6,660.4c-.2-6.1-5-9.9-10.1-9.9-4.7,0-10,3.9-10,9.5l-.2,21.9c0,2.3-3.7,4.7-5.9,4.8s-6.4-1.9-6.5-4.2v-22.9c-.2-12.7,10.6-21.7,22.5-21.7s22.9,9.4,22.9,22.4v21.7c0,1.8-3.5,4.2-5.2,4.6s-6.8-1.4-6.8-3.4l-.7-22.6Z"/>
  <path class="st0" d="M395.5,642.5c0-2.7,4-4.6,6-4.7s6.1,2.1,6.1,4.2v21c.2,6.1,4.1,10.8,9.9,10.8,6.3,0,10.6-4.2,10.6-10.8l.2-21.1c0-2.6,4.7-4.7,6.8-4.2s5.5,3.2,5.5,6.3l-.2,22.8c0,11.8-11.1,19.5-21.8,19.8s-21.6-6.9-22.7-18.8l-.2-25.3Z"/>
  <path class="st0" d="M572.4,681.6c0,2.8-3.8,4.8-6.1,5s-6.3-1.9-6.3-4.5v-37.2c0-3.7,1.8-6.5,5.9-7.2s6.6,2.9,6.6,6.3v37.6Z"/>
  <path class="st0" d="M565.1,618.8c4-.6,7.6,2.9,7.9,5.9s-2.5,7.2-5.9,7.9-7.3-2.1-7.9-5.2,1.3-7.9,5.9-8.5Z"/>
  <path class="st0" d="M681.3,659.1c0-9.8-9.1-17.9-16.8-20.1-10.3-2.9-20.3.1-26.2,8.1-7.2,9.6-7,22.1.5,30.7,7.2,8.3,19.2,11.6,29.8,4.9,1.8,5.3-.8,11.3-5.8,13.7-5.3,2.5-12.1,1.5-15.3-3.7-2.1-3.4-5.5-4.4-9.1-2.7-2.4,1.1-4.3,5.3-2.2,8.7,7.6,12.1,23.5,15.2,35.1,7.5,6-4,10.2-11,10.2-18.2v-28.9ZM662,672.7c-5.9,2.4-12.8,0-15.5-5.8-2.6-5.5-.1-12.7,6.4-15.5,6.5-2.8,13.2.9,15.4,6.7,2.2,5.9-.6,12.3-6.3,14.6Z"/>
  <path class="st0" d="M498.1,661.5c-.3-9.5-5.6-17.1-12.4-20.8-7.8-4.2-15.8-4.2-24,.8v-18.7c-.2-2.8-3.7-5-6.2-5-2.4,0-6.3,2.1-6.3,5l-.3,39.4c0,13.9,11.7,24.2,24.7,24.2,13.3,0,25.1-10.4,24.6-25ZM478.2,672.9c-4.9,2-10.2.7-13.2-2.3-3.7-3.7-4.9-8.9-2.3-14,1.9-3.6,6.7-6.7,11.8-6.3,5.7.5,9.7,4.7,10.7,9.4,1.2,5.5-1.2,10.9-7,13.2Z"/>
  <path class="st0" d="M549.3,649c-7-10.7-20.8-14.3-32.2-7.7l-.4-19.1c0-3.2-5.3-4.8-7.8-3.9-2.7,1-4.5,3.4-4.5,6.7l-.2,39.1c0,9,6.7,16.6,13.5,19.9,8.5,4.1,18,3.5,25.6-2.1,11-8.2,12.8-22.5,6-32.9ZM533,673.3c-5.1,2-11.9-.1-15-5.9-2.8-5.3-.9-13,6-16.1,6.4-2.9,13.2.4,15.7,6.3,2.5,5.8,0,13-6.7,15.6Z"/>
  <path class="st0" d="M681.2,493.3c.1,18.8-5.8,36.3-16.3,51.3-31.4,45.1-96.3,50.5-134.5,10.9-17.5-18.2-26-42.6-24.8-68.1.8-17.6-4.4-33.7-16.8-45.8-18.8-18.3-47.6-20.2-68.7-4.5s-22.2,27.7-22.2,45.9v69.8c0,15.9-11.2,28.5-27,29.3-14.1.7-29.5-9.9-29.5-26l-.2-294.9c0-15.8,11.7-28,26.6-28.8s29.8,10.1,29.8,26.2l.3,125.7c44.2-27.2,100-17.3,134.7,20.3,16.9,18.4,27.6,41.4,28.9,66.6l.5,23.8c.3,17,14,29.6,30.4,30,16.4.4,30.6-11.9,31.8-29.3l.7-58.2c.2-14.7,13.1-25.1,27-25.7,13.8-.6,28.6,9.7,28.7,24.6l.4,57Z"/>
</svg>